<svg xmlns="http://www.w3.org/2000/svg" viewBox="0 0 960 960" width="960" height="960" role="img" aria-hidden="true">
  <!-- Abstract, brand-owned oil-type icon - NOT a photograph, NOT a real
       product photo, no label/text/logo. Same bottle silhouette as
       src/assets/images/products/natural-oils/placeholder-bottle.svg,
       with a distinct abstract botanical motif per oil family so listing
       pages / PDP galleries can tell products apart visually before real
       photography exists. See src/lib/oil-type-icons.ts for the mapping.
       Generated programmatically; motif: flaxseed. -->
  <rect x="0" y="0" width="960" height="960" fill="#F6F1E8" />
  <rect x="1" y="1" width="958" height="958" fill="none" stroke="#DDD5C7" stroke-width="2" />

  <g fill="none" stroke="#3F5B45" stroke-width="7" stroke-linejoin="round" stroke-linecap="round">
    <rect x="420" y="150" width="120" height="44" rx="10" />
    <rect x="444" y="194" width="72" height="56" />
    <path d="M444,250 C410,270 372,300 372,335 L372,715 C372,742 394,764 421,764 L539,764 C566,764 588,742 588,715 L588,335 C588,300 550,270 516,250 Z" />
    <line x1="372" y1="520" x2="588" y2="520" stroke-width="3" opacity="0.35" />
  </g>

  <g fill="none" stroke="#3F5B45" stroke-width="5" stroke-linecap="round" opacity="0.55">
    <ellipse cx="638" cy="300" rx="12" ry="18" />
    <ellipse cx="638" cy="336" rx="12" ry="18" transform="rotate(72 638 336)" />
    <ellipse cx="638" cy="336" rx="12" ry="18" transform="rotate(144 638 336)" />
    <ellipse cx="638" cy="336" rx="12" ry="18" transform="rotate(216 638 336)" />
    <ellipse cx="638" cy="336" rx="12" ry="18" transform="rotate(288 638 336)" />
    <circle cx="638" cy="336" r="6" fill="#3F5B45" stroke="none" />
    <ellipse cx="622" cy="384" rx="16" ry="6" transform="rotate(-20 622 384)" />
    <ellipse cx="654" cy="386" rx="16" ry="6" transform="rotate(15 654 386)" />
  </g>
</svg>
